<svg xmlns="http://www.w3.org/2000/svg" viewBox="0 0 43.239 48.055">
  <g id="calculator" transform="translate(0)">
    <g id="Group_139" data-name="Group 139" transform="translate(0)">
      <g id="Group_138" data-name="Group 138">
        <path id="Path_1087" data-name="Path 1087" d="M64.93,0H29.616a3.967,3.967,0,0,0-3.963,3.963V44.092a3.967,3.967,0,0,0,3.963,3.963H64.93a3.967,3.967,0,0,0,3.963-3.963V3.963A3.967,3.967,0,0,0,64.93,0Zm2.458,44.092A2.461,2.461,0,0,1,64.93,46.55H29.616a2.461,2.461,0,0,1-2.458-2.458V3.963A2.461,2.461,0,0,1,29.616,1.5H64.93a2.461,2.461,0,0,1,2.458,2.458Z" transform="translate(-25.653)"/>
      </g>
    </g>
    <g id="Group_141" data-name="Group 141" transform="translate(4.816 4.816)">
      <g id="Group_140" data-name="Group 140">
        <path id="Path_1088" data-name="Path 1088" d="M109.013,51.307h-30.5a1.557,1.557,0,0,0-1.555,1.555v9.631a1.557,1.557,0,0,0,1.555,1.555h30.5a1.557,1.557,0,0,0,1.555-1.555V52.862A1.557,1.557,0,0,0,109.013,51.307Zm.05,11.186a.05.05,0,0,1-.05.05h-30.5a.05.05,0,0,1-.05-.05V52.862a.05.05,0,0,1,.05-.05h30.5a.05.05,0,0,1,.05.05Z" transform="translate(-76.96 -51.307)"/>
      </g>
    </g>
    <g id="Group_143" data-name="Group 143" transform="translate(4.816 20.867)">
      <g id="Group_142" data-name="Group 142">
        <path id="Path_1089" data-name="Path 1089" d="M82.528,222.33H78.515a1.557,1.557,0,0,0-1.555,1.555v3.21a1.557,1.557,0,0,0,1.555,1.555h4.013a1.557,1.557,0,0,0,1.555-1.555v-3.21A1.557,1.557,0,0,0,82.528,222.33Zm.05,4.765a.05.05,0,0,1-.05.05H78.515a.05.05,0,0,1-.05-.05v-3.21a.05.05,0,0,1,.05-.05h4.013a.05.05,0,0,1,.05.05Z" transform="translate(-76.96 -222.33)"/>
      </g>
    </g>
    <g id="Group_145" data-name="Group 145" transform="translate(13.644 20.867)">
      <g id="Group_144" data-name="Group 144">
        <path id="Path_1090" data-name="Path 1090" d="M176.591,222.33h-4.013a1.557,1.557,0,0,0-1.555,1.555v3.21a1.557,1.557,0,0,0,1.555,1.555h4.013a1.557,1.557,0,0,0,1.555-1.555v-3.21A1.557,1.557,0,0,0,176.591,222.33Zm.05,4.765a.05.05,0,0,1-.05.05h-4.013a.05.05,0,0,1-.05-.05v-3.21a.05.05,0,0,1,.05-.05h4.013a.05.05,0,0,1,.05.05Z" transform="translate(-171.023 -222.33)"/>
      </g>
    </g>
    <g id="Group_147" data-name="Group 147" transform="translate(22.472 20.867)">
      <g id="Group_146" data-name="Group 146">
        <path id="Path_1091" data-name="Path 1091" d="M270.653,222.33H266.64a1.557,1.557,0,0,0-1.555,1.555v3.21a1.557,1.557,0,0,0,1.555,1.555h4.013a1.557,1.557,0,0,0,1.555-1.555v-3.21A1.557,1.557,0,0,0,270.653,222.33Zm.05,4.765a.05.05,0,0,1-.05.05H266.64a.05.05,0,0,1-.05-.05v-3.21a.05.05,0,0,1,.05-.05h4.013a.05.05,0,0,1,.05.05Z" transform="translate(-265.085 -222.33)"/>
      </g>
    </g>
    <g id="Group_149" data-name="Group 149" transform="translate(31.301 20.867)">
      <g id="Group_148" data-name="Group 148">
        <path id="Path_1092" data-name="Path 1092" d="M364.716,222.33H360.7a1.557,1.557,0,0,0-1.555,1.555v3.21a1.557,1.557,0,0,0,1.555,1.555h4.013a1.557,1.557,0,0,0,1.555-1.555v-3.21A1.557,1.557,0,0,0,364.716,222.33Zm.05,4.765a.05.05,0,0,1-.05.05H360.7a.05.05,0,0,1-.05-.05v-3.21a.05.05,0,0,1,.05-.05h4.013a.05.05,0,0,1,.05.05Z" transform="translate(-359.148 -222.33)"/>
      </g>
    </g>
    <g id="Group_151" data-name="Group 151" transform="translate(4.816 28.893)">
      <g id="Group_150" data-name="Group 150">
        <path id="Path_1093" data-name="Path 1093" d="M82.528,307.841H78.515A1.557,1.557,0,0,0,76.96,309.4v3.21a1.557,1.557,0,0,0,1.555,1.555h4.013a1.557,1.557,0,0,0,1.555-1.555V309.4A1.557,1.557,0,0,0,82.528,307.841Zm.05,4.765a.05.05,0,0,1-.05.05H78.515a.05.05,0,0,1-.05-.05V309.4a.05.05,0,0,1,.05-.05h4.013a.05.05,0,0,1,.05.05Z" transform="translate(-76.96 -307.841)"/>
      </g>
    </g>
    <g id="Group_153" data-name="Group 153" transform="translate(13.644 28.893)">
      <g id="Group_152" data-name="Group 152">
        <path id="Path_1094" data-name="Path 1094" d="M176.591,307.841h-4.013a1.557,1.557,0,0,0-1.555,1.555v3.21a1.557,1.557,0,0,0,1.555,1.555h4.013a1.557,1.557,0,0,0,1.555-1.555V309.4A1.557,1.557,0,0,0,176.591,307.841Zm.05,4.765a.05.05,0,0,1-.05.05h-4.013a.05.05,0,0,1-.05-.05V309.4a.05.05,0,0,1,.05-.05h4.013a.05.05,0,0,1,.05.05Z" transform="translate(-171.023 -307.841)"/>
      </g>
    </g>
    <g id="Group_155" data-name="Group 155" transform="translate(22.472 28.893)">
      <g id="Group_154" data-name="Group 154">
        <path id="Path_1095" data-name="Path 1095" d="M270.653,307.841H266.64a1.557,1.557,0,0,0-1.555,1.555v3.21a1.557,1.557,0,0,0,1.555,1.555h4.013a1.557,1.557,0,0,0,1.555-1.555V309.4A1.557,1.557,0,0,0,270.653,307.841Zm.05,4.765a.05.05,0,0,1-.05.05H266.64a.05.05,0,0,1-.05-.05V309.4a.05.05,0,0,1,.05-.05h4.013a.05.05,0,0,1,.05.05Z" transform="translate(-265.085 -307.841)"/>
      </g>
    </g>
    <g id="Group_157" data-name="Group 157" transform="translate(4.816 36.919)">
      <g id="Group_156" data-name="Group 156">
        <path id="Path_1096" data-name="Path 1096" d="M82.528,393.353H78.515a1.557,1.557,0,0,0-1.555,1.555v3.21a1.557,1.557,0,0,0,1.555,1.555h4.013a1.557,1.557,0,0,0,1.555-1.555v-3.21A1.557,1.557,0,0,0,82.528,393.353Zm.05,4.765a.05.05,0,0,1-.05.05H78.515a.05.05,0,0,1-.05-.05v-3.21a.05.05,0,0,1,.05-.05h4.013a.05.05,0,0,1,.05.05Z" transform="translate(-76.96 -393.353)"/>
      </g>
    </g>
    <g id="Group_159" data-name="Group 159" transform="translate(13.644 36.919)">
      <g id="Group_158" data-name="Group 158">
        <path id="Path_1097" data-name="Path 1097" d="M176.591,393.353h-4.013a1.557,1.557,0,0,0-1.555,1.555v3.21a1.557,1.557,0,0,0,1.555,1.555h4.013a1.557,1.557,0,0,0,1.555-1.555v-3.21A1.557,1.557,0,0,0,176.591,393.353Zm.05,4.765a.05.05,0,0,1-.05.05h-4.013a.05.05,0,0,1-.05-.05v-3.21a.05.05,0,0,1,.05-.05h4.013a.05.05,0,0,1,.05.05Z" transform="translate(-171.023 -393.353)"/>
      </g>
    </g>
    <g id="Group_161" data-name="Group 161" transform="translate(22.472 36.919)">
      <g id="Group_160" data-name="Group 160">
        <path id="Path_1098" data-name="Path 1098" d="M270.653,393.353H266.64a1.557,1.557,0,0,0-1.555,1.555v3.21a1.557,1.557,0,0,0,1.555,1.555h4.013a1.557,1.557,0,0,0,1.555-1.555v-3.21A1.557,1.557,0,0,0,270.653,393.353Zm.05,4.765a.05.05,0,0,1-.05.05H266.64a.05.05,0,0,1-.05-.05v-3.21a.05.05,0,0,1,.05-.05h4.013a.05.05,0,0,1,.05.05Z" transform="translate(-265.085 -393.353)"/>
      </g>
    </g>
    <g id="Group_163" data-name="Group 163" transform="translate(31.301 28.893)">
      <g id="Group_162" data-name="Group 162">
        <path id="Path_1099" data-name="Path 1099" d="M364.716,307.841H360.7a1.557,1.557,0,0,0-1.555,1.555v11.236a1.557,1.557,0,0,0,1.555,1.555h4.013a1.557,1.557,0,0,0,1.555-1.555V309.4A1.557,1.557,0,0,0,364.716,307.841Zm.05,12.791a.05.05,0,0,1-.05.05H360.7a.05.05,0,0,1-.05-.05V309.4a.05.05,0,0,1,.05-.05h4.013a.05.05,0,0,1,.05.05Z" transform="translate(-359.148 -307.841)"/>
      </g>
    </g>
    <g id="Group_165" data-name="Group 165" transform="translate(22.472 10.434)">
      <g id="Group_164" data-name="Group 164">
        <path id="Path_1100" data-name="Path 1100" d="M269.048,111.165h-3.21a.752.752,0,0,0,0,1.5h3.21a.752.752,0,1,0,0-1.5Z" transform="translate(-265.085 -111.165)"/>
      </g>
    </g>
    <g id="Group_167" data-name="Group 167" transform="translate(28.893 10.434)">
      <g id="Group_166" data-name="Group 166">
        <path id="Path_1101" data-name="Path 1101" d="M337.457,111.165h-3.21a.752.752,0,0,0,0,1.5h3.21a.752.752,0,1,0,0-1.5Z" transform="translate(-333.494 -111.165)"/>
      </g>
    </g>
    <g id="Group_169" data-name="Group 169" transform="translate(9.631 10.434)">
      <g id="Group_168" data-name="Group 168">
        <path id="Path_1102" data-name="Path 1102" d="M132.23,111.165h-3.21a.752.752,0,1,0,0,1.5h3.21a.752.752,0,1,0,0-1.5Z" transform="translate(-128.267 -111.165)"/>
      </g>
    </g>
    <g id="Group_171" data-name="Group 171" transform="translate(16.052 10.434)">
      <g id="Group_170" data-name="Group 170">
        <path id="Path_1103" data-name="Path 1103" d="M200.639,111.165h-3.21a.752.752,0,1,0,0,1.5h3.21a.752.752,0,1,0,0-1.5Z" transform="translate(-196.676 -111.165)"/>
      </g>
    </g>
  </g>
</svg>
